<svg height='100px' width='100px'  fill="#fff" xmlns="http://www.w3.org/2000/svg" xmlns:xlink="http://www.w3.org/1999/xlink" version="1.1" x="0px" y="0px" viewBox="0 0 24 24" style="enable-background:new 0 0 24 24;" xml:space="preserve"><g><path d="M22.935,6.92h-1.037V5.237c0-0.121-0.087-0.225-0.206-0.246c-0.13-0.024-3.161-0.526-5.519,1.828   c-0.488-0.487-1.003-0.854-1.517-1.125V1.87c0-0.871-0.713-1.58-1.59-1.58H2.405c-0.876,0-1.59,0.709-1.59,1.58v1.11v18.04v1.101   c0,0.877,0.713,1.59,1.59,1.59h10.661c0.877,0,1.59-0.713,1.59-1.59v-5.68h8.279c0.138,0,0.25-0.112,0.25-0.25V7.17   C23.185,7.032,23.072,6.92,22.935,6.92z M21.397,5.458v1.705c0,0.003-0.003,0.004-0.003,0.007s0.003,0.004,0.003,0.007v7.442   c-0.875-0.084-3.5-0.212-4.973,0.984V7.275c0.514-0.537,1.068-0.915,1.62-1.187V7.75c0,0.092,0.051,0.176,0.131,0.22   C18.213,7.99,18.254,8,18.295,8c0.048,0,0.096-0.014,0.137-0.041l0.747-0.489l0.716,0.486c0.076,0.052,0.175,0.057,0.258,0.014   c0.082-0.043,0.133-0.128,0.133-0.221V5.467C20.772,5.425,21.174,5.437,21.397,5.458z M9.655,15.94V7.42h0.792v7.479   c0,0.072,0.031,0.142,0.086,0.188c0.055,0.048,0.13,0.069,0.199,0.059c0.037-0.004,3.233-0.43,4.824,0.794H9.655z M15.925,7.281   v8.328c-1.472-1.202-4.102-1.073-4.978-0.99V5.458C11.661,5.392,14.076,5.343,15.925,7.281z M18.545,5.859   c0.437-0.167,0.854-0.266,1.24-0.329v1.748l-0.463-0.314c-0.083-0.057-0.194-0.057-0.277-0.002l-0.5,0.327V5.859z M2.405,0.79   h10.661c0.601,0,1.09,0.484,1.09,1.08v0.86H1.315V1.87C1.315,1.274,1.804,0.79,2.405,0.79z M13.065,23.21H2.405   c-0.601,0-1.09-0.489-1.09-1.09V21.27h12.84v0.851C14.155,22.721,13.666,23.21,13.065,23.21z M14.155,20.77H1.315V3.23h12.84v2.226   c-1.784-0.75-3.407-0.482-3.502-0.465c-0.119,0.021-0.206,0.125-0.206,0.246V6.92H9.405c-0.138,0-0.25,0.112-0.25,0.25v9.021   c0,0.138,0.112,0.25,0.25,0.25h4.75V20.77z M22.685,15.94h-5.896c1.591-1.223,4.789-0.799,4.824-0.794   c0.072,0.013,0.145-0.011,0.199-0.059c0.055-0.047,0.086-0.116,0.086-0.188V7.42h0.787V15.94z"></path><path d="M11.818,8.708h3.271c0.138,0,0.25-0.112,0.25-0.25V7.17c0-0.138-0.112-0.25-0.25-0.25h-3.271   c-0.138,0-0.25,0.112-0.25,0.25v1.288C11.568,8.596,11.68,8.708,11.818,8.708z M12.068,7.42h2.771v0.788h-2.771V7.42z"></path><path d="M11.818,9.917h3.271c0.138,0,0.25-0.112,0.25-0.25s-0.112-0.25-0.25-0.25h-3.271c-0.138,0-0.25,0.112-0.25,0.25   S11.68,9.917,11.818,9.917z"></path><path d="M17.235,8.625c-0.138,0-0.25,0.112-0.25,0.25s0.112,0.25,0.25,0.25h3.271c0.138,0,0.25-0.112,0.25-0.25   s-0.112-0.25-0.25-0.25H17.235z"></path><path d="M18.652,10.062h-1.417c-0.138,0-0.25,0.112-0.25,0.25s0.112,0.25,0.25,0.25h1.417c0.138,0,0.25-0.112,0.25-0.25   S18.79,10.062,18.652,10.062z"></path><path d="M18.652,11.5h-1.417c-0.138,0-0.25,0.112-0.25,0.25S17.098,12,17.235,12h1.417c0.138,0,0.25-0.112,0.25-0.25   S18.79,11.5,18.652,11.5z"></path><path d="M18.652,12.938h-1.417c-0.138,0-0.25,0.112-0.25,0.25s0.112,0.25,0.25,0.25h1.417c0.138,0,0.25-0.112,0.25-0.25   S18.79,12.938,18.652,12.938z"></path><path d="M11.818,11.233h3.271c0.138,0,0.25-0.112,0.25-0.25s-0.112-0.25-0.25-0.25h-3.271c-0.138,0-0.25,0.112-0.25,0.25   S11.68,11.233,11.818,11.233z"></path><path d="M11.818,12.549h3.271c0.138,0,0.25-0.112,0.25-0.25s-0.112-0.25-0.25-0.25h-3.271c-0.138,0-0.25,0.112-0.25,0.25   S11.68,12.549,11.818,12.549z"></path><path d="M11.818,13.865h3.271c0.138,0,0.25-0.112,0.25-0.25s-0.112-0.25-0.25-0.25h-3.271c-0.138,0-0.25,0.112-0.25,0.25   S11.68,13.865,11.818,13.865z"></path><path d="M19.527,9.896c-0.138,0-0.25,0.112-0.25,0.25v3.208c0,0.138,0.112,0.25,0.25,0.25h1.188c0.138,0,0.25-0.112,0.25-0.25   v-3.208c0-0.138-0.112-0.25-0.25-0.25H19.527z M20.465,13.104h-0.688v-2.708h0.688V13.104z"></path><path d="M6.172,1.958h3.125c0.138,0,0.25-0.112,0.25-0.25s-0.112-0.25-0.25-0.25H6.172c-0.138,0-0.25,0.112-0.25,0.25   S6.034,1.958,6.172,1.958z"></path><circle cx="7.735" cy="22.156" r="0.594"></circle></g></svg>