<svg height='100px' width='100px'  fill="#000" xmlns="http://www.w3.org/2000/svg" xmlns:xlink="http://www.w3.org/1999/xlink" version="1.1" x="0px" y="0px" viewBox="0 0 24 24" style="enable-background:new 0 0 24 24;" xml:space="preserve"><g><path d="M5.549,8.538C5.501,8.433,5.437,8.344,5.358,8.27c-0.08-0.074-0.171-0.138-0.273-0.19C4.982,8.028,4.877,7.982,4.772,7.94   c-0.105-0.042-0.208-0.083-0.31-0.123C4.361,7.777,4.27,7.732,4.191,7.683C4.112,7.634,4.048,7.576,3.998,7.51   C3.949,7.445,3.924,7.364,3.924,7.267c0-0.07,0.013-0.134,0.039-0.194c0.026-0.059,0.064-0.11,0.115-0.153   c0.05-0.044,0.115-0.077,0.195-0.101c0.079-0.023,0.171-0.035,0.275-0.035c0.116,0,0.219,0.014,0.31,0.041   c0.091,0.027,0.169,0.056,0.236,0.087s0.121,0.06,0.163,0.087C5.3,7.026,5.332,7.04,5.354,7.04c0.015,0,0.028-0.004,0.04-0.015   c0.013-0.008,0.023-0.022,0.032-0.042c0.009-0.019,0.015-0.045,0.019-0.076c0.004-0.03,0.006-0.067,0.006-0.109   c0-0.039-0.002-0.073-0.006-0.1C5.441,6.671,5.438,6.648,5.434,6.63C5.43,6.611,5.424,6.594,5.416,6.579   C5.407,6.564,5.39,6.547,5.364,6.527C5.338,6.508,5.3,6.484,5.249,6.459C5.198,6.432,5.137,6.408,5.065,6.386   C4.993,6.363,4.912,6.345,4.823,6.33C4.776,6.322,4.73,6.322,4.684,6.319c0-0.004,0.004-0.006,0.004-0.01V5.805   c0-0.138-0.112-0.25-0.25-0.25s-0.25,0.112-0.25,0.25v0.503c0,0.021,0.017,0.034,0.022,0.053C4.15,6.374,4.076,6.371,4.022,6.39   C3.87,6.445,3.743,6.517,3.641,6.608C3.54,6.698,3.464,6.803,3.413,6.923C3.362,7.043,3.337,7.169,3.337,7.3   c0,0.149,0.024,0.276,0.072,0.383S3.52,7.881,3.6,7.958c0.08,0.077,0.169,0.141,0.27,0.195c0.1,0.053,0.202,0.102,0.308,0.143   c0.106,0.041,0.208,0.082,0.307,0.12c0.099,0.039,0.188,0.083,0.267,0.133c0.079,0.049,0.143,0.106,0.192,0.17   c0.048,0.064,0.072,0.144,0.072,0.238c0,0.092-0.017,0.171-0.05,0.238S4.885,9.317,4.823,9.36C4.761,9.404,4.688,9.436,4.604,9.458   C4.52,9.48,4.426,9.491,4.322,9.491c-0.139,0-0.262-0.016-0.368-0.05C3.847,9.408,3.755,9.372,3.677,9.332   C3.599,9.293,3.533,9.256,3.48,9.223c-0.054-0.034-0.094-0.05-0.121-0.05c-0.017,0-0.032,0.004-0.046,0.013   C3.299,9.194,3.288,9.208,3.281,9.228c-0.008,0.02-0.014,0.046-0.019,0.078C3.257,9.338,3.255,9.378,3.255,9.425   c0,0.077,0.005,0.137,0.018,0.182s0.033,0.079,0.06,0.104s0.07,0.053,0.13,0.084c0.059,0.031,0.132,0.061,0.217,0.09   c0.086,0.028,0.182,0.052,0.29,0.07c0.069,0.012,0.144,0.014,0.218,0.018v0.465c0,0.138,0.112,0.25,0.25,0.25s0.25-0.112,0.25-0.25   V9.932c0.049-0.01,0.107-0.007,0.153-0.02c0.161-0.047,0.3-0.116,0.416-0.208C5.374,9.612,5.464,9.5,5.527,9.366   C5.59,9.232,5.622,9.08,5.622,8.909C5.622,8.765,5.597,8.641,5.549,8.538z"></path><path d="M19.562,3.849c-0.975,0-1.864,0.339-2.586,0.888c-0.152-0.175-0.305-0.351-0.493-0.529   c-1.415-1.297-3.331-1.92-5.258-1.708C9.604,2.686,8.085,3.496,7.01,4.726C6.291,4.183,5.406,3.849,4.438,3.849   c-2.369,0-4.296,1.927-4.296,4.296c0,2.369,1.927,4.296,4.296,4.296c0.573,0,1.118-0.117,1.618-0.322   c0.653,1.295,1.701,2.357,2.998,2.988c0.214,0.107,0.342,0.302,0.342,0.519l-0.012,3.37c0,0.572,0.384,1.04,0.902,1.205   c0.065,0.766,0.481,1.341,1.008,1.341h1.378c0.516,0,0.928-0.553,1.005-1.296c0.637-0.079,1.123-0.588,1.123-1.251l-0.012-3.464   c0-0.188,0.159-0.442,0.336-0.534c1.209-0.645,2.181-1.669,2.789-2.887c0.508,0.212,1.065,0.331,1.649,0.331   c2.369,0,4.297-1.927,4.297-4.296C23.858,5.776,21.931,3.849,19.562,3.849z M0.642,8.145c0-2.093,1.703-3.796,3.796-3.796   s3.796,1.703,3.796,3.796c0,1.51-0.892,2.806-2.172,3.417c-0.003,0.001-0.007-0.001-0.01,0c-0.005,0.002-0.005,0.008-0.01,0.01   c-0.489,0.23-1.029,0.369-1.605,0.369C2.345,11.941,0.642,10.238,0.642,8.145z M11.514,16.404l-0.907-4.943   c0.416-0.122,0.727-0.482,0.743-0.943v-0.439c0-0.299,0.243-0.542,0.542-0.542c0.298,0,0.542,0.243,0.542,0.542   c0,0.479,0.32,1.018,0.767,1.184l-0.614,5.119C12.188,16.415,11.832,16.42,11.514,16.404z M11.862,16.922   c0.283,0,0.598-0.021,0.929-0.055c0.007,0.001,0.013,0.001,0.019,0.001c0.004,0,0.007-0.004,0.012-0.004   c0.447-0.047,0.937-0.133,1.469-0.265l0.004,1.214c-2.453,0.636-3.984,0.191-4.408,0.03l0.004-1.198   C10.268,16.766,10.93,16.922,11.862,16.922z M12.672,21.042h-1.378c-0.204,0-0.419-0.317-0.489-0.765h2.357   C13.092,20.725,12.876,21.042,12.672,21.042z M13.519,19.777c-0.026-0.009-0.046-0.031-0.075-0.031s-0.049,0.022-0.075,0.031   h-2.703c-0.046,0-0.086-0.019-0.13-0.026c-0.005,0-0.007-0.005-0.012-0.005c-0.002,0-0.002,0.002-0.004,0.002   c-0.359-0.071-0.635-0.373-0.635-0.751l0.002-0.622c0.374,0.122,1.038,0.28,1.976,0.28c0.672,0,1.492-0.09,2.436-0.324l0.002,0.666   C14.3,19.435,13.957,19.777,13.519,19.777z M14.891,14.555c-0.338,0.176-0.603,0.604-0.603,0.978l0.002,0.55   c-0.427,0.111-0.821,0.186-1.192,0.237l0.606-5.046c0.462-0.107,0.815-0.502,0.815-0.996c0-0.138-0.112-0.25-0.25-0.25   s-0.25,0.112-0.25,0.25c0,0.299-0.243,0.542-0.542,0.542c-0.274,0-0.542-0.423-0.542-0.74c0-0.575-0.467-1.042-1.042-1.042   s-1.042,0.467-1.042,1.042v0.43c-0.01,0.28-0.25,0.508-0.533,0.508c-0.299,0-0.542-0.243-0.542-0.542c0-0.138-0.112-0.25-0.25-0.25   s-0.25,0.112-0.25,0.25c0,0.498,0.358,0.896,0.826,0.998l0.897,4.893c-0.558-0.068-0.923-0.185-1.104-0.253l0.002-0.485   c0-0.405-0.237-0.775-0.621-0.968c-1.203-0.585-2.172-1.569-2.776-2.768c1.325-0.732,2.235-2.128,2.235-3.746   c0-1.221-0.518-2.318-1.338-3.101c0.992-1.131,2.392-1.876,3.884-2.047c1.805-0.198,3.536,0.36,4.861,1.576   c0.171,0.162,0.309,0.322,0.448,0.482c-0.813,0.782-1.324,1.875-1.324,3.09c0,1.607,0.897,2.994,2.207,3.731   C16.912,13.007,16.01,13.957,14.891,14.555z M19.562,11.941c-2.093,0-3.796-1.703-3.796-3.796s1.703-3.796,3.796-3.796   c2.094,0,3.797,1.703,3.797,3.796S21.655,11.941,19.562,11.941z"></path><path d="M18.134,6.136c-0.078-0.045-0.172-0.045-0.25,0c-0.077,0.044-0.125,0.127-0.125,0.216v3.587   c0,0.089,0.048,0.172,0.125,0.216c0.039,0.022,0.082,0.034,0.125,0.034s0.086-0.011,0.125-0.034l3.106-1.794   c0.077-0.044,0.125-0.127,0.125-0.216s-0.048-0.172-0.125-0.217L18.134,6.136z M18.259,9.506V6.785l2.356,1.36L18.259,9.506z"></path></g></svg>