<svg height='100px' width='100px'  fill="#fff" xmlns="http://www.w3.org/2000/svg" xmlns:xlink="http://www.w3.org/1999/xlink" version="1.1" x="0px" y="0px" viewBox="0 0 66 66" enable-background="new 0 0 66 66" xml:space="preserve"><g><g><path d="M23.7,65L23.7,65h18.5c0.1,0,3-0.1,3-3v-0.1c0-5.9,0-22.1,0-29.7c0-0.3,0-7.2,0-6.8c0-1.6-1.3-3-2.9-3c-6.6,0-12,0-18.6,0    c-1.6,0-2.9,1.4-2.9,3v0.1c0,7.6,0,23.5,0,36.5C20.8,61.9,20.9,65,23.7,65z M22.8,25.4c0-0.6,0.4-1.1,1-1.1h18.4    c0.6,0,1,0.6,1,1.1v5.7H22.8V25.4z M22.8,33.1h20.5v21H22.8V33.1z M22.8,56.1h20.5v5.7c0,0.6-0.4,1.1-1,1.1H23.8    c-0.6,0-1-0.5-1-1.1V56.1z"></path></g><g><path d="M36,27.2H30c-0.6,0-1,0.4-1,1c0,0.6,0.4,1,1,1H36c0.6,0,1-0.4,1-1C37,27.6,36.6,27.2,36,27.2z"></path></g><g><path d="M33,62.5c1.6,0,2.9-1.3,2.9-2.9c0-3.9-5.9-3.9-5.9,0C30.1,61.2,31.4,62.5,33,62.5z M33,58.6c0.5,0,0.9,0.4,0.9,0.9    c0,0.5-0.4,0.9-0.9,0.9c-0.5,0-0.9-0.4-0.9-0.9C32.1,59,32.5,58.6,33,58.6z"></path></g><g><path d="M11.1,41.2h7.8c0.6,0,1-0.4,1-1s-0.4-1-1-1h-7.8c-3.9,0-7-3.2-7-7c0-4.5,4.2-7.8,8.2-6.9c0.8,0.2,1.4-0.6,1.1-1.3    c-2.5-6.7,3.4-13.5,10.4-11.9c0.5,0.1,0.9-0.1,1.1-0.6c6.7-15.4,30.3-7.8,26.5,8.7c-0.2,0.7,0.4,1.3,1,1.2c5.4-0.3,9.5,3.9,9.5,9    c0,4.9-4,9-9,9h-5.9c-0.6,0-1,0.4-1,1s0.4,1,1,1H53c6,0,11-4.9,11-11c0-5.7-4.4-10.6-10.4-10.9C56.5,1.6,31.3-6.4,23.4,9.8    C15.7,8.6,9.4,15.7,11,23.1c0,0,0,0-0.1,0C6.3,23.1,2,27,2,32.2C2,37.1,6.1,41.2,11.1,41.2z"></path></g><g><path d="M48.3,18c0.6,0,1-0.4,1-1c0-12.4-17.1-16-22.1-4.6c-0.2,0.5,0,1.1,0.5,1.3c0.5,0.2,1.1,0,1.3-0.5    c4.1-9.4,18.3-6.5,18.3,3.8C47.3,17.5,47.7,18,48.3,18z"></path></g><g><path d="M22.7,15.2c0-0.6-0.4-1-1-1c-3.6,0-6.5,2.9-6.5,6.5c0,0.6,0.4,1,1,1c0.6,0,1-0.4,1-1c0-2.5,2-4.5,4.5-4.5    C22.3,16.2,22.7,15.7,22.7,15.2z"></path></g></g></svg>