<svg height='100px' width='100px'  fill="#000" xmlns="http://www.w3.org/2000/svg" xmlns:xlink="http://www.w3.org/1999/xlink" version="1.1" x="0px" y="0px" viewBox="-247 370.9 100 100" style="enable-background:new -247 370.9 100 100;" xml:space="preserve"><path d="M-179.2,412.3v-23.9H-216v23.9H-179.2z M-212,392.4h28.8v15.9H-212V392.4z"></path><path d="M-150.2,397.4v-13.9h-4.8v-9h-10v-3.3h-67c-6.6,0-12,5.4-12,12v76.1c0,6.6,5.4,12,12,12h31.3v1.8l3.9-1.8h13.8l3.9,1.8v-1.8  h14V463h10v-8v-0.9v-23h4.8v-13.9h-4.7v-3h4.8v-13.8h-4.8v-3H-150.2z M-169,375.2v8.2v13.9v3v13.9v3v13.9v12.5h-55.7v-68.4H-169z   M-183,466.8l-6.8-3.1l-6.8,3.1v-11.2h13.6V466.8z M-169,467.2h-10v-4.3h10V467.2z M-159,459h-20v-4h20V459z M-159,451h-69.7v4h28.1  v4h-28.1v4h28.1v4.3H-232c-4.4,0-8-3.6-8-8v-3.6c0-4.4,3.6-8,8-8h65l0,0h2v-16.5h6V451z M-159,417.2h-6v-3h6V417.2z M-159,400.4h-6  v-3h6V400.4z M-159,383.5h-6v-5h6V383.5z"></path></svg>