<svg height='100px' width='100px'  fill="#fff" xmlns="http://www.w3.org/2000/svg" xmlns:xlink="http://www.w3.org/1999/xlink" version="1.1" x="0px" y="0px" viewBox="0 0 24 24" enable-background="new 0 0 24 24" xml:space="preserve"><g><path d="M19.435,16.857v-3.065v-0.834V0.5c0-0.221-0.18-0.4-0.4-0.4H1.367c-0.221,0-0.4,0.179-0.4,0.4v15.78   c0,0.052,0.011,0.104,0.031,0.153c0.017,0.041,0.043,0.076,0.072,0.108c0.006,0.007,0.008,0.015,0.014,0.022l7.22,7.22   c0.005,0.005,0.011,0.006,0.017,0.011c0.034,0.031,0.071,0.057,0.113,0.075c0.049,0.02,0.101,0.031,0.153,0.031h10.447   c0.085,0,0.159-0.032,0.224-0.078c0.007-0.005,0.017-0.003,0.024-0.008c0.429-0.339,1.919-1.566,3.097-3.129   c0.73-0.97,1.01-2.409-0.016-3.435C21.598,16.485,20.358,16.35,19.435,16.857z M18.634,0.9v12.058v0.834v3.065   c-0.924-0.507-2.164-0.372-2.929,0.393c-1.025,1.026-0.747,2.464-0.016,3.435c0.741,0.983,1.607,1.834,2.255,2.415H8.765   c-2.599-2.73-1.199-6.002-1.137-6.142c0.068-0.154,0.033-0.334-0.088-0.451c-0.121-0.116-0.302-0.145-0.454-0.071   c-0.033,0.015-3.254,1.553-5.318-0.338V0.9H18.634z M3.422,17.769c1.233,0.221,2.442-0.043,3.206-0.295   c-0.199,0.81-0.371,2.115,0.022,3.522L3.422,17.769z M21.74,20.204c-0.952,1.264-2.124,2.3-2.706,2.782   c-0.582-0.483-1.756-1.521-2.706-2.782c-0.522-0.694-0.743-1.702-0.057-2.388c0.31-0.31,0.723-0.481,1.161-0.481   s0.852,0.171,1.161,0.481c0.236,0.235,0.645,0.235,0.881,0c0.619-0.62,1.703-0.62,2.322,0C22.483,18.502,22.263,19.51,21.74,20.204   z"></path><path d="M6.634,13.759c0.221,0,0.4-0.179,0.4-0.4v-2.204c0-0.221-0.18-0.4-0.4-0.4s-0.4,0.179-0.4,0.4v2.204   C6.233,13.58,6.413,13.759,6.634,13.759z"></path><path d="M13.825,10.755c-0.221,0-0.4,0.179-0.4,0.4v2.204c0,0.221,0.18,0.4,0.4,0.4s0.4-0.179,0.4-0.4v-2.204   C14.226,10.935,14.046,10.755,13.825,10.755z"></path><path d="M11.763,10.755H8.696c-0.221,0-0.4,0.179-0.4,0.4v2.204c0,0.221,0.18,0.4,0.4,0.4h3.066c0.221,0,0.4-0.179,0.4-0.4v-2.204   C12.163,10.935,11.983,10.755,11.763,10.755z M11.362,12.959H9.097v-1.404h2.266V12.959z"></path><path d="M6.634,6.025c0.221,0,0.4-0.179,0.4-0.4V3.421c0-0.221-0.18-0.4-0.4-0.4s-0.4,0.179-0.4,0.4v2.204   C6.233,5.846,6.413,6.025,6.634,6.025z"></path><path d="M8.805,6.025c0.221,0,0.4-0.179,0.4-0.4V3.421c0-0.221-0.18-0.4-0.4-0.4s-0.4,0.179-0.4,0.4v2.204   C8.404,5.846,8.584,6.025,8.805,6.025z"></path><path d="M10.763,6.025h3.066c0.221,0,0.4-0.179,0.4-0.4V3.421c0-0.221-0.18-0.4-0.4-0.4h-3.066c-0.221,0-0.4,0.179-0.4,0.4v2.204   C10.362,5.846,10.542,6.025,10.763,6.025z M11.163,3.821h2.266v1.404h-2.266V3.821z"></path><path d="M13.829,6.592c-0.221,0-0.4,0.179-0.4,0.4v2.204c0,0.221,0.18,0.4,0.4,0.4s0.4-0.179,0.4-0.4V6.992   C14.229,6.771,14.05,6.592,13.829,6.592z"></path><path d="M12.059,9.195V6.992c0-0.221-0.18-0.4-0.4-0.4s-0.4,0.179-0.4,0.4v2.204c0,0.221,0.18,0.4,0.4,0.4   S12.059,9.416,12.059,9.195z"></path><path d="M6.634,9.595H9.7c0.221,0,0.4-0.179,0.4-0.4V6.992c0-0.221-0.18-0.4-0.4-0.4H6.634c-0.221,0-0.4,0.179-0.4,0.4v2.204   C6.233,9.416,6.413,9.595,6.634,9.595z M7.034,7.392H9.3v1.404H7.034V7.392z"></path></g></svg>