<?xml version="1.0" standalone="no"?>
<!DOCTYPE svg PUBLIC "-//W3C//DTD SVG 20010904//EN"
 "http://www.w3.org/TR/2001/REC-SVG-20010904/DTD/svg10.dtd">
<svg version="1.0" xmlns="http://www.w3.org/2000/svg"
 width="1200.000000pt" height="1200.000000pt" viewBox="0 0 1200.000000 1200.000000"
 preserveAspectRatio="xMidYMid meet">
<metadata>
Created by potrace 1.11, written by Peter Selinger 2001-2013
</metadata>
<g transform="translate(0.000000,1200.000000) scale(0.100000,-0.100000)"
fill="#000000" stroke="none">
<path d="M0 6000 l0 -6000 6000 0 6000 0 0 6000 0 6000 -6000 0 -6000 0 0
-6000z m6081 2961 c24 -19 24 -22 27 -234 l3 -216 62 -5 c34 -3 141 -8 237
-11 447 -15 992 -90 1460 -201 465 -111 881 -257 1269 -445 244 -118 341 -173
526 -294 668 -439 1060 -954 1166 -1535 9 -46 14 -146 14 -260 0 -212 -19
-334 -81 -512 -102 -296 -259 -539 -519 -807 -995 -1022 -2998 -1573 -5040
-1385 -552 50 -1153 174 -1650 338 -764 254 -1370 606 -1800 1047 -318 326
-502 653 -577 1022 -33 159 -32 453 1 606 80 375 274 714 591 1032 280 281
599 503 1035 719 666 330 1333 518 2240 632 l100 13 125 244 c90 176 132 247
150 257 19 10 96 13 331 14 287 0 308 -1 330 -19z"/>
<path d="M4585 6860 c-950 -1900 -955 -1910 -932 -1924 79 -49 189 -116 193
-116 4 0 1974 3936 1974 3945 0 3 -63 5 -140 5 l-140 0 -955 -1910z"/>
<path d="M5013 6665 c-480 -960 -871 -1745 -868 -1745 7 0 1727 911 1738 920
4 3 6 583 5 1288 l-3 1282 -872 -1745z"/>
<path d="M6110 8126 l0 -166 83 0 c112 0 390 -17 577 -35 681 -67 1345 -231
1885 -465 985 -429 1556 -1080 1522 -1734 -20 -383 -168 -679 -503 -1008
-1017 -999 -3320 -1426 -5303 -982 -678 152 -1270 397 -1716 709 -1023 717
-1112 1699 -224 2460 536 458 1359 797 2312 951 l108 17 90 179 c73 146 86
178 71 178 -61 0 -417 -57 -627 -100 -884 -182 -1618 -491 -2180 -919 -115
-87 -337 -300 -431 -412 -292 -350 -430 -741 -402 -1142 49 -722 678 -1401
1722 -1862 598 -263 1323 -445 2076 -519 543 -54 1114 -54 1660 0 1884 185
3391 1006 3729 2033 61 185 83 361 69 557 -65 955 -1135 1815 -2743 2204 -521
126 -1015 193 -1597 216 l-178 7 0 -167z"/>
<path d="M6110 6811 l0 -941 23 -5 c12 -3 504 -100 1092 -215 1575 -308 2075
-406 2320 -455 l220 -44 19 22 c29 35 102 185 126 262 68 218 67 455 -2 660
-33 98 -106 239 -171 332 -79 113 -304 337 -432 432 -465 341 -1102 600 -1852
750 -295 59 -721 112 -1018 126 -66 3 -166 8 -222 11 l-103 5 0 -940z"/>
<path d="M4525 7605 c-751 -155 -1378 -412 -1833 -750 -126 -94 -325 -289
-404 -395 -106 -143 -184 -305 -224 -460 -15 -61 -19 -109 -18 -250 1 -160 3
-183 28 -265 223 -746 1205 -1343 2631 -1599 621 -112 1418 -138 2080 -70
1163 120 2165 496 2710 1018 l90 86 -65 -5 c-36 -3 -1328 -84 -2871 -180
l-2807 -175 -215 132 c-218 134 -247 159 -247 212 0 14 301 629 675 1376 371
742 675 1352 675 1355 0 10 -47 3 -205 -30z"/>
<path d="M5195 5230 c-445 -237 -801 -430 -790 -429 160 4 4543 288 4525 293
-14 3 -288 58 -610 121 -322 62 -966 188 -1431 279 -465 91 -855 166 -865 166
-10 0 -383 -194 -829 -430z"/>
</g>
</svg>
