<?xml version="1.0" standalone="no"?>
<!DOCTYPE svg PUBLIC "-//W3C//DTD SVG 20010904//EN"
 "http://www.w3.org/TR/2001/REC-SVG-20010904/DTD/svg10.dtd">
<svg version="1.0" xmlns="http://www.w3.org/2000/svg"
 width="800.000000pt" height="800.000000pt" viewBox="0 0 800.000000 800.000000"
 preserveAspectRatio="xMidYMid meet">
<metadata>
Created by potrace 1.11, written by Peter Selinger 2001-2013
</metadata>
<g transform="translate(0.000000,800.000000) scale(0.100000,-0.100000)"
fill="#000000" stroke="none">
<path d="M3618 5976 c-15 -7 -49 -62 -103 -168 -44 -86 -83 -159 -86 -162 -3
-3 -25 -8 -50 -11 -110 -13 -143 -17 -158 -20 -9 -1 -52 -8 -96 -15 -305 -45
-686 -147 -985 -265 -223 -88 -548 -262 -685 -367 -272 -209 -439 -391 -552
-603 -52 -99 -107 -255 -118 -335 -4 -30 -9 -64 -11 -75 -6 -28 -6 -194 0
-232 27 -180 72 -308 156 -453 129 -222 333 -426 605 -608 141 -94 178 -115
348 -199 331 -164 825 -320 1167 -368 25 -4 63 -10 85 -15 22 -5 65 -11 95
-15 30 -3 69 -8 85 -10 17 -2 57 -7 90 -10 33 -3 76 -8 95 -10 231 -24 852
-25 1000 -1 14 3 57 7 95 11 39 3 97 10 130 15 33 5 83 12 110 15 28 4 57 8
65 10 8 2 31 7 50 10 19 3 46 8 60 10 14 3 36 7 50 10 14 3 36 7 50 10 14 3
34 7 45 9 254 49 661 184 910 302 634 301 1044 726 1143 1182 21 97 27 318 11
390 -4 20 -10 51 -13 67 -21 120 -125 339 -224 470 -62 84 -211 242 -292 311
-177 150 -459 320 -715 432 -231 100 -579 211 -825 262 -25 5 -56 12 -70 15
-31 6 -123 22 -170 30 -19 3 -46 7 -60 10 -51 9 -238 33 -310 40 -120 11 -295
21 -412 24 l-58 1 0 145 c0 139 -1 145 -22 159 -29 18 -393 20 -430 2z m261
-133 c0 -5 -296 -599 -657 -1321 l-657 -1312 -70 43 c-39 23 -70 47 -70 52 0
6 285 580 634 1278 l635 1267 93 0 c51 0 93 -3 92 -7z m51 -1091 l0 -858 -57
-29 c-32 -17 -96 -51 -143 -76 -47 -25 -139 -74 -205 -109 -66 -34 -151 -79
-190 -100 -38 -20 -108 -57 -155 -82 -47 -25 -158 -84 -247 -132 -89 -47 -165
-86 -168 -86 -3 0 257 524 577 1165 321 641 584 1165 585 1165 2 0 3 -386 3
-858z m455 763 c145 -10 206 -16 310 -30 17 -2 53 -7 80 -10 28 -4 57 -8 65
-10 8 -2 35 -7 60 -10 175 -23 485 -100 715 -177 197 -66 522 -206 565 -243 8
-8 19 -14 23 -14 16 0 213 -126 310 -199 56 -42 146 -122 202 -177 313 -315
429 -653 350 -1020 -25 -116 -105 -288 -183 -394 -260 -353 -705 -641 -1284
-832 -133 -43 -259 -80 -324 -94 -10 -2 -57 -13 -104 -24 -101 -23 -115 -26
-260 -51 -183 -31 -398 -55 -595 -66 -218 -13 -573 -8 -785 11 -124 10 -177
16 -200 20 -14 2 -47 7 -75 10 -27 3 -61 7 -75 10 -14 3 -42 8 -62 10 -21 2
-70 11 -110 19 -40 8 -86 17 -103 20 -57 11 -73 15 -227 55 -145 37 -407 119
-453 141 -11 5 -69 30 -130 56 -375 157 -719 394 -900 619 -22 28 -43 52 -46
55 -20 17 -103 150 -137 221 -69 145 -99 269 -101 421 -6 477 356 927 1010
1254 70 35 130 64 133 64 3 0 31 12 62 26 155 71 505 182 709 225 33 7 62 13
65 14 33 8 71 16 95 20 17 3 41 7 55 10 13 2 42 7 65 10 22 3 51 8 65 10 14 3
42 7 64 10 21 2 56 7 77 10 22 3 39 4 39 1 0 -3 -26 -58 -57 -121 -41 -81 -64
-117 -78 -120 -11 -2 -36 -7 -55 -10 -19 -2 -46 -7 -60 -10 -14 -3 -41 -8 -60
-11 -58 -9 -279 -62 -390 -93 -404 -114 -778 -303 -1030 -520 -65 -56 -74 -65
-140 -137 -117 -128 -222 -319 -246 -449 -37 -199 -19 -344 66 -531 133 -294
485 -583 950 -782 166 -71 446 -163 570 -188 14 -3 61 -14 105 -24 81 -19 116
-26 170 -36 163 -27 178 -29 360 -49 33 -4 74 -9 90 -11 173 -22 793 -21 904
1 13 2 56 7 95 9 85 6 249 29 396 57 90 17 102 19 170 35 36 9 72 17 80 19 61
13 288 83 386 119 255 94 462 198 642 322 121 84 138 99 257 219 218 221 312
432 307 690 -8 495 -512 958 -1338 1229 -60 20 -119 38 -130 40 -10 2 -48 12
-84 21 -104 27 -302 70 -365 79 -23 4 -52 8 -65 11 -30 6 -80 13 -140 20 -25
3 -63 7 -85 10 -22 3 -58 7 -80 10 -44 5 -203 14 -330 20 -44 2 -83 4 -87 4
-5 1 -8 50 -8 111 l0 109 118 -4 c64 -2 153 -7 197 -10z m-45 -360 c52 -3 115
-7 140 -10 111 -11 166 -17 181 -20 9 -2 40 -6 70 -10 30 -3 101 -15 159 -26
58 -11 116 -23 130 -25 14 -3 63 -14 110 -25 47 -12 94 -23 104 -25 169 -33
662 -233 776 -314 15 -11 31 -20 35 -20 23 0 246 -172 330 -255 168 -166 272
-393 268 -588 -3 -131 -50 -288 -112 -376 l-21 -28 -92 18 c-106 22 -131 27
-173 34 -16 3 -50 10 -75 15 -25 5 -56 12 -70 14 -72 14 -156 30 -205 40 -55
12 -547 108 -590 116 -27 5 -61 12 -75 14 -40 9 -123 25 -150 30 -26 5 -151
29 -235 46 -79 16 -257 51 -285 56 -14 3 -81 16 -150 30 -69 13 -136 27 -150
29 -110 21 -183 35 -186 35 -2 0 -4 283 -4 628 l0 629 88 -3 c48 -2 130 -5
182 -9z m-1591 -877 c-226 -453 -430 -861 -453 -908 -46 -91 -50 -123 -16
-151 11 -9 77 -52 147 -95 143 -88 125 -84 343 -70 63 4 142 9 175 11 127 7
252 15 305 20 30 2 107 7 170 11 63 3 138 7 165 9 28 2 97 7 155 10 138 8 220
13 305 20 39 3 117 7 175 10 58 3 134 7 170 10 73 5 186 13 305 20 44 3 114 7
155 10 41 3 118 8 170 11 113 6 193 11 315 19 50 3 124 8 165 10 124 7 241 14
320 20 41 2 111 7 155 10 44 3 116 8 160 10 44 3 120 7 169 10 l88 5 -33 -33
c-244 -240 -657 -454 -1104 -571 -5 -1 -28 -8 -50 -14 -22 -6 -55 -14 -74 -17
-19 -3 -37 -8 -41 -10 -4 -2 -22 -7 -41 -10 -19 -3 -41 -8 -50 -11 -10 -2 -30
-6 -45 -9 -16 -2 -83 -13 -149 -24 -125 -21 -170 -27 -270 -36 -33 -3 -71 -8
-85 -10 -118 -21 -717 -22 -885 -1 -16 2 -66 7 -110 11 -44 5 -87 9 -95 10 -8
1 -42 6 -75 10 -33 4 -63 9 -66 11 -3 1 -32 6 -65 9 -32 4 -62 9 -65 11 -4 2
-53 13 -110 24 -57 12 -111 23 -119 25 -369 95 -656 208 -895 352 -481 291
-687 663 -579 1042 40 142 150 306 284 426 24 22 51 47 60 55 8 8 47 38 85 66
292 215 705 382 1195 484 74 16 138 29 143 29 4 1 -178 -369 -404 -821z m1384
-524 c45 -9 93 -18 107 -20 14 -3 79 -16 145 -29 66 -13 133 -26 149 -29 16
-3 52 -10 80 -15 28 -6 62 -13 76 -15 14 -2 48 -9 75 -15 28 -6 61 -13 75 -15
22 -4 189 -37 260 -51 14 -3 61 -12 105 -21 44 -8 125 -24 180 -35 55 -11 111
-22 125 -25 14 -2 70 -13 125 -24 55 -11 114 -22 130 -25 94 -17 208 -43 195
-45 -22 -3 -80 -7 -210 -14 -63 -4 -140 -9 -170 -11 -55 -4 -179 -12 -320 -20
-41 -2 -109 -7 -150 -10 -41 -3 -112 -7 -157 -10 -46 -3 -118 -7 -160 -10 -43
-3 -121 -7 -173 -10 -52 -3 -120 -8 -150 -10 -86 -6 -281 -18 -480 -30 -52 -3
-126 -8 -165 -11 -38 -2 -108 -6 -155 -9 -47 -2 -119 -7 -160 -10 -41 -3 -113
-7 -160 -10 -47 -3 -119 -7 -160 -10 -225 -14 -264 -15 -260 -12 6 5 240 130
620 330 69 36 199 106 290 156 111 60 172 88 188 85 12 -3 60 -12 105 -20z"/>
</g>
</svg>
